<?xml version="1.0" ?><!DOCTYPE svg  PUBLIC '-//W3C//DTD SVG 1.1//EN'  'http://www.w3.org/Graphics/SVG/1.1/DTD/svg11.dtd'><svg width="32px" height="32px" viewBox="0 0 32 32" enable-background="new 0 0 32 32" version="1.1" xml:space="preserve" xmlns="http://www.w3.org/2000/svg" xmlns:xlink="http://www.w3.org/1999/xlink"><g id="Layer_2"/><g id="Layer_3"/><g id="Layer_4"/><g id="Layer_5"/><g id="Layer_6"/><g id="Layer_7"/><g id="Layer_8"/><g id="Layer_9"/><g id="Layer_10"/><g id="Layer_11"><path d="M30.97,1.76c-0.02-0.08-0.05-0.16-0.09-0.23c-0.01-0.03-0.03-0.06-0.05-0.09   c-0.01-0.01-0.02-0.03-0.04-0.04c-0.02-0.04-0.05-0.08-0.08-0.11c-0.03-0.03-0.07-0.06-0.11-0.08c-0.0099-0.02-0.03-0.03-0.04-0.04   c-0.03-0.02-0.06-0.04-0.09-0.05C30.4,1.08,30.32,1.05,30.24,1.03C30.16,1.01,30.08,1,30,1s-0.16,0.01-0.25,0.04   c-0.04,0-0.09,0.02-0.14,0.04l-0.17,0.08L1.61,13.08C1.24,13.24,1,13.59,1,13.99c0,0.39,0.23,0.76,0.59,0.92l10.66,4.84l4.84,10.66   C17.25,30.77,17.61,31,18,31h0.01c0.4,0,0.75-0.24,0.91-0.61L30.89,2.46c0.01-0.02,0.02-0.05,0.03-0.0699   c0.02-0.05,0.04-0.1,0.04-0.14C30.99,2.17,31,2.09,31,2C31,1.92,30.99,1.84,30.97,1.76z" fill="#2197F3"/><g><path d="M31,2c0,0.09-0.01,0.17-0.04,0.25c0,0.04-0.02,0.09-0.04,0.14C30.91,2.41,30.9,2.44,30.89,2.46    L18.92,30.39C18.76,30.76,18.41,31,18.01,31H18c-0.39,0-0.75-0.23-0.91-0.59l-4.84-10.66L30.71,1.29    c0.03,0.03,0.06,0.07,0.08,0.11c0.04,0.04,0.07,0.09,0.09,0.13c0.04,0.07,0.07,0.15,0.09,0.23C30.99,1.84,31,1.92,31,2z" fill="#16BCD4"/><path d="M30.6,1.21c-0.04-0.04-0.09-0.0699-0.13-0.09c0.03,0.01,0.0601,0.03,0.09,0.05    C30.57,1.18,30.59,1.19,30.6,1.21z" fill="#16BCD4"/></g></g><g id="Layer_12"/><g id="Layer_13"/><g id="Layer_14"/><g id="Layer_15"/><g id="Layer_16"/><g id="Layer_17"/><g id="Layer_18"/><g id="Layer_19"/><g id="Maps_11_"/><g id="Maps_10_"/><g id="Maps_9_"/><g id="Maps_8_"/><g id="Maps_7_"/><g id="Maps_6_"/><g id="Maps_5_"/><g id="Maps_4_"/><g id="Maps_3_"/><g id="Maps_2_"/><g id="Maps_1_"/><g id="Maps"/></svg>